<?xml version="1.0" encoding="utf-8"?>
<svg xmlns="http://www.w3.org/2000/svg" width="145mm" height="145mm" viewBox="0 0 145 145" class="segno"><g transform="scale(5)"><path fill="#800080" d="M0 0h29v29h-29z"/><path class="qrline" stroke="#0ff" d="M4 4.5h7m1 0h1m1 0h1m1 0h1m1 0h7m-21 1h1m5 0h1m2 0h2m3 0h1m5 0h1m-21 1h1m1 0h3m1 0h1m1 0h1m1 0h1m1 0h1m1 0h1m1 0h3m1 0h1m-21 1h1m1 0h3m1 0h1m1 0h1m2 0h2m1 0h1m1 0h3m1 0h1m-21 1h1m1 0h3m1 0h1m2 0h1m1 0h1m2 0h1m1 0h3m1 0h1m-21 1h1m5 0h1m1 0h4m2 0h1m5 0h1m-21 1h7m1 0h1m1 0h1m1 0h1m1 0h7m-13 1h1m2 0h2m-12 1h1m1 0h1m1 0h6m2 0h3m1 0h2m1 0h1m-21 1h2m1 0h1m3 0h1m1 0h2m1 0h1m2 0h2m1 0h3m-20 1h1m1 0h2m1 0h2m1 0h1m1 0h2m1 0h2m1 0h1m2 0h1m-21 1h6m4 0h1m2 0h5m1 0h1m-20 1h4m1 0h2m2 0h3m1 0h1m2 0h2m1 0h2m-13 1h1m1 0h5m2 0h1m-18 1h7m1 0h3m2 0h5m1 0h1m-20 1h1m5 0h1m1 0h1m1 0h2m1 0h1m3 0h1m1 0h2m-21 1h1m1 0h3m1 0h1m8 0h1m3 0h1m-20 1h1m1 0h3m1 0h1m1 0h3m4 0h2m2 0h2m-21 1h1m1 0h3m1 0h1m2 0h2m1 0h2m1 0h2m1 0h1m1 0h1m-21 1h1m5 0h1m1 0h1m2 0h1m3 0h2m-17 1h7m3 0h3m4 0h1m1 0h1"/></g></svg>
